<?xml version="1.0" encoding="UTF-8" standalone="no"?>
<!DOCTYPE svg PUBLIC "-//W3C//DTD SVG 1.1//EN" "http://www.w3.org/Graphics/SVG/1.1/DTD/svg11.dtd">
<svg width="100%" height="100%" viewBox="0 0 626 552" version="1.1" xmlns="http://www.w3.org/2000/svg" xmlns:xlink="http://www.w3.org/1999/xlink" xml:space="preserve" xmlns:serif="http://www.serif.com/" style="fill-rule:evenodd;clip-rule:evenodd;stroke-linecap:round;stroke-linejoin:round;stroke-miterlimit:1.5;">
    <g transform="matrix(1,0,0,1,-2765.822495,-1229.68895)">
        <g transform="matrix(1.618768,0,0,1.127142,432.175615,534.752787)">
            <path d="M1816.366,724.292L1816.366,905.739C1816.366,955.811 1788.06,996.463 1753.195,996.463L1516.641,996.463C1481.777,996.463 1453.471,955.811 1453.471,905.739L1453.471,724.292C1453.471,674.22 1481.777,633.568 1516.641,633.568L1753.195,633.568C1788.06,633.568 1816.366,674.22 1816.366,724.292Z" style="fill:white;stroke:black;stroke-width:27.51px;"/>
        </g>
        <g transform="matrix(1.618768,0,0,1.127142,432.175615,639.18707)">
            <path d="M1816.366,724.292L1816.366,905.739C1816.366,955.811 1788.06,996.463 1753.195,996.463L1516.641,996.463C1481.777,996.463 1453.471,955.811 1453.471,905.739L1453.471,724.292C1453.471,674.22 1481.777,633.568 1516.641,633.568L1753.195,633.568C1788.06,633.568 1816.366,674.22 1816.366,724.292Z" style="fill:white;stroke:black;stroke-width:27.51px;"/>
        </g>
        <g transform="matrix(0.354167,0,0,0.354167,2864.805022,1381.201741)">
            <path d="M1105.356,864.637L967.851,864.637C954.883,864.637 944.354,854.108 944.354,841.14L944.354,794.144C944.354,781.175 954.883,770.646 967.851,770.646L1105.356,770.646L1105.356,632.698C1105.356,619.729 1115.885,609.2 1128.854,609.2L1175.85,609.2C1188.818,609.2 1199.347,619.729 1199.347,632.698L1199.347,770.646L1338.593,770.646C1351.562,770.646 1362.091,781.175 1362.091,794.144L1362.091,841.14C1362.091,854.108 1351.562,864.637 1338.593,864.637L1199.347,864.637L1199.347,1003.44C1199.347,1016.408 1188.818,1026.937 1175.85,1026.937L1128.854,1026.937C1115.885,1026.937 1105.356,1016.408 1105.356,1003.44L1105.356,864.637Z" style="stroke:black;stroke-width:33.33px;"/>
        </g>
    </g>
</svg>
