<?xml version="1.0" encoding="UTF-8" standalone="no"?>
<!DOCTYPE svg PUBLIC "-//W3C//DTD SVG 1.1//EN" "http://www.w3.org/Graphics/SVG/1.1/DTD/svg11.dtd">
<svg width="100%" height="100%" viewBox="0 0 316 452" version="1.1" xmlns="http://www.w3.org/2000/svg" xmlns:xlink="http://www.w3.org/1999/xlink" xml:space="preserve" xmlns:serif="http://www.serif.com/" style="fill-rule:evenodd;clip-rule:evenodd;stroke-linecap:round;stroke-linejoin:round;stroke-miterlimit:1.5;">
    <g transform="matrix(1,0,0,1,-911.151414,-562.059318)">
        <g transform="matrix(1,0,0,1,-177.538329,-30.474197)">
            <path d="M1199.347,632.698L1199.347,1003.44C1199.347,1016.408 1188.818,1026.937 1175.85,1026.937L1128.854,1026.937C1115.885,1026.937 1105.356,1016.408 1105.356,1003.44L1105.356,632.698C1105.356,619.729 1115.885,609.2 1128.854,609.2L1175.85,609.2C1188.818,609.2 1199.347,619.729 1199.347,632.698Z" style="fill:white;stroke:black;stroke-width:33.33px;"/>
        </g>
        <g transform="matrix(1,0,0,1,10.443431,-30.474197)">
            <path d="M1199.347,632.698L1199.347,1003.44C1199.347,1016.408 1188.818,1026.937 1175.85,1026.937L1128.854,1026.937C1115.885,1026.937 1105.356,1016.408 1105.356,1003.44L1105.356,632.698C1105.356,619.729 1115.885,609.2 1128.854,609.2L1175.85,609.2C1188.818,609.2 1199.347,619.729 1199.347,632.698Z" style="fill:white;stroke:black;stroke-width:33.33px;"/>
        </g>
    </g>
</svg>
