<?xml version="1.0" encoding="UTF-8" standalone="no"?>
<!DOCTYPE svg PUBLIC "-//W3C//DTD SVG 1.1//EN" "http://www.w3.org/Graphics/SVG/1.1/DTD/svg11.dtd">
<svg width="100%" height="100%" viewBox="0 0 954 529" version="1.1" xmlns="http://www.w3.org/2000/svg" xmlns:xlink="http://www.w3.org/1999/xlink" xml:space="preserve" xmlns:serif="http://www.serif.com/" style="fill-rule:evenodd;clip-rule:evenodd;stroke-linecap:round;stroke-linejoin:round;stroke-miterlimit:1.5;">
    <g transform="matrix(1,0,0,1,-1462.199565,-1231.605495)">
        <g transform="matrix(0,-1,1,0,1245.852252,2860.787703)">
            <path d="M1314.495,759.22C1324.065,740.08 1343.628,727.989 1365.028,727.989C1386.428,727.989 1405.991,740.08 1415.561,759.22C1460.707,849.511 1526.152,980.402 1569.014,1066.127C1578.332,1084.762 1577.336,1106.894 1566.383,1124.617C1555.429,1142.341 1536.079,1153.129 1515.244,1153.129L1222.555,1153.129C1200.061,1153.129 1179.171,1141.482 1167.346,1122.348C1155.52,1103.213 1154.445,1079.32 1164.504,1059.201C1207.366,973.477 1270.548,847.113 1314.495,759.22Z" style="fill:white;stroke:black;stroke-width:33.33px;"/>
        </g>
        <g transform="matrix(0,-1,1,0,820.712481,2860.787703)">
            <path d="M1314.495,759.22C1324.065,740.08 1343.628,727.989 1365.028,727.989C1386.428,727.989 1405.991,740.08 1415.561,759.22C1460.707,849.511 1526.152,980.402 1569.014,1066.127C1578.332,1084.762 1577.336,1106.894 1566.383,1124.617C1555.429,1142.341 1536.079,1153.129 1515.244,1153.129L1222.555,1153.129C1200.061,1153.129 1179.171,1141.482 1167.346,1122.348C1155.52,1103.213 1154.445,1079.32 1164.504,1059.201C1207.366,973.477 1270.548,847.113 1314.495,759.22Z" style="fill:white;stroke:black;stroke-width:33.33px;"/>
        </g>
    </g>
</svg>
